<svg width="170" height="150" viewBox="0 0 170 150" fill="none" xmlns="http://www.w3.org/2000/svg">
<path d="M49.4075 66.9C49.4075 66.9 67.3408 124.063 52.2347 131.925C37.1287 139.787 17.2742 138.27 17.0748 121.924C16.8754 105.577 49.4075 66.9 49.4075 66.9Z" fill="black" fill-opacity="0.94" stroke="black"/>
<path d="M120.38 63.6659C120.38 63.6659 102.446 120.829 117.552 128.691C132.658 136.553 152.513 135.036 152.712 118.69C152.912 102.343 120.38 63.6659 120.38 63.6659Z" fill="black" fill-opacity="0.94" stroke="black"/>
<circle cx="86.6195" cy="99.6659" r="49" fill="#DD9534" stroke="black" stroke-width="2"/>
<circle cx="64.6195" cy="93.6659" r="20" fill="white"/>
<circle cx="64.6195" cy="94.6659" r="10" fill="black"/>
<circle r="20" transform="matrix(-1 0 0 1 108.62 93.6659)" fill="white"/>
<circle r="10" transform="matrix(-1 0 0 1 108.62 94.6659)" fill="black"/>
<path d="M44.6831 97C44.6831 99.6264 45.2004 102.227 46.2055 104.654C47.2106 107.08 48.6838 109.285 50.541 111.142C52.3981 112.999 54.6029 114.472 57.0294 115.478C59.4559 116.483 62.0567 117 64.6831 117C67.3095 117 69.9103 116.483 72.3368 115.478C74.7633 114.472 76.9681 112.999 78.8252 111.142C80.6824 109.285 82.1556 107.08 83.1607 104.654C84.1658 102.227 84.6831 99.6264 84.6831 97L64.6831 97H44.6831Z" fill="#DD9534"/>
<path d="M88.6831 97C88.6831 99.6264 89.2004 102.227 90.2055 104.654C91.2106 107.08 92.6838 109.285 94.541 111.142C96.3981 112.999 98.6029 114.472 101.029 115.478C103.456 116.483 106.057 117 108.683 117C111.31 117 113.91 116.483 116.337 115.478C118.763 114.472 120.968 112.999 122.825 111.142C124.682 109.285 126.156 107.08 127.161 104.654C128.166 102.227 128.683 99.6264 128.683 97L108.683 97H88.6831Z" fill="#DD9534"/>
<circle cx="86.6195" cy="113.666" r="20" fill="#C58530"/>
<path d="M84.6831 89C84.6831 86.3736 84.1658 83.7728 83.1607 81.3463C82.1556 78.9198 80.6824 76.715 78.8252 74.8579C76.9681 73.0007 74.7633 71.5275 72.3368 70.5224C69.9103 69.5173 67.3095 69 64.6831 69C62.0567 69 59.4559 69.5173 57.0294 70.5224C54.6029 71.5275 52.3981 73.0007 50.541 74.8579C48.6838 76.715 47.2106 78.9198 46.2055 81.3463C45.2004 83.7728 44.6831 86.3736 44.6831 89L64.6831 89H84.6831Z" fill="#DD9534"/>
<path d="M128.683 89C128.683 86.3736 128.166 83.7728 127.161 81.3463C126.156 78.9198 124.682 76.715 122.825 74.8579C120.968 73.0007 118.763 71.5275 116.337 70.5224C113.91 69.5173 111.31 69 108.683 69C106.057 69 103.456 69.5173 101.029 70.5224C98.6029 71.5275 96.3981 73.0007 94.541 74.8579C92.6838 76.715 91.2106 78.9198 90.2055 81.3463C89.2004 83.7728 88.6831 86.3736 88.6831 89L108.683 89H128.683Z" fill="#DD9534"/>
<circle cx="85.6195" cy="109.666" r="13" fill="black"/>
<path d="M54.0825 46.2514C66.3778 48.6186 93.5865 46.7905 104.443 26.827C115.3 6.86345 127.618 22.3586 123.846 39.881C120.073 57.4033 81.2646 74.7809 58.7392 69.6676C36.2139 64.5542 35.7107 54.7506 40.082 48.6034C44.4532 42.4561 54.0825 46.2514 54.0825 46.2514Z" fill="#DD9534" stroke="black" stroke-width="4"/>
<path d="M61.0322 46.0705C61.0322 46.0705 47.5216 15.2751 61.0322 6.66587C74.5428 -1.94334 102.054 26.0955 102.054 26.0955L61.0322 46.0705Z" fill="#DD9534" stroke="black" stroke-width="4"/>
<path d="M63.134 45.6544C63.134 45.6544 60.0164 42.2473 65.9788 34.0006C71.9411 25.7539 90.5263 23.9702 95.1831 24.6659C99.84 25.3617 104.228 30.1072 104.228 30.1072L86.7008 42.587L63.134 45.6544Z" fill="black" stroke="black"/>
</svg>
