<svg width="171" height="150" viewBox="0 0 171 150" fill="none" xmlns="http://www.w3.org/2000/svg">
<path d="M50.4075 66.9C50.4075 66.9 68.3408 124.063 53.2347 131.925C38.1287 139.787 18.2742 138.27 18.0748 121.924C17.8754 105.577 50.4075 66.9 50.4075 66.9Z" fill="black" fill-opacity="0.94" stroke="black"/>
<path d="M121.38 63.6659C121.38 63.6659 103.446 120.829 118.552 128.691C133.658 136.553 153.513 135.036 153.712 118.69C153.912 102.343 121.38 63.6659 121.38 63.6659Z" fill="black" fill-opacity="0.94" stroke="black"/>
<circle cx="87.6195" cy="99.6659" r="49" fill="#DD9534" stroke="black" stroke-width="2"/>
<circle cx="65.6195" cy="93.6659" r="20" fill="white"/>
<circle cx="65.6195" cy="94.6659" r="10" fill="black"/>
<circle r="20" transform="matrix(-1 0 0 1 109.62 93.6659)" fill="white"/>
<circle r="10" transform="matrix(-1 0 0 1 109.62 94.6659)" fill="black"/>
<path d="M45.6831 97C45.6831 99.6264 46.2004 102.227 47.2055 104.654C48.2106 107.08 49.6838 109.285 51.541 111.142C53.3981 112.999 55.6029 114.472 58.0294 115.478C60.4559 116.483 63.0567 117 65.6831 117C68.3095 117 70.9103 116.483 73.3368 115.478C75.7633 114.472 77.9681 112.999 79.8252 111.142C81.6824 109.285 83.1556 107.08 84.1607 104.654C85.1658 102.227 85.6831 99.6264 85.6831 97L65.6831 97H45.6831Z" fill="#DD9534"/>
<path d="M89.6831 97C89.6831 99.6264 90.2004 102.227 91.2055 104.654C92.2106 107.08 93.6838 109.285 95.541 111.142C97.3981 112.999 99.6029 114.472 102.029 115.478C104.456 116.483 107.057 117 109.683 117C112.31 117 114.91 116.483 117.337 115.478C119.763 114.472 121.968 112.999 123.825 111.142C125.682 109.285 127.156 107.08 128.161 104.654C129.166 102.227 129.683 99.6264 129.683 97L109.683 97H89.6831Z" fill="#DD9534"/>
<circle cx="87.6195" cy="113.666" r="20" fill="#C58530"/>
<path d="M85.6831 89C85.6831 86.3736 85.1658 83.7728 84.1607 81.3463C83.1556 78.9198 81.6824 76.715 79.8252 74.8579C77.9681 73.0007 75.7633 71.5275 73.3368 70.5224C70.9103 69.5173 68.3095 69 65.6831 69C63.0567 69 60.4559 69.5173 58.0294 70.5224C55.6029 71.5275 53.3981 73.0007 51.541 74.8579C49.6838 76.715 48.2106 78.9198 47.2055 81.3463C46.2004 83.7728 45.6831 86.3736 45.6831 89L65.6831 89H85.6831Z" fill="#DD9534"/>
<path d="M129.683 89C129.683 86.3736 129.166 83.7728 128.161 81.3463C127.156 78.9198 125.682 76.715 123.825 74.8579C121.968 73.0007 119.763 71.5275 117.337 70.5224C114.91 69.5173 112.31 69 109.683 69C107.057 69 104.456 69.5173 102.029 70.5224C99.6029 71.5275 97.3981 73.0007 95.541 74.8579C93.6838 76.715 92.2106 78.9198 91.2055 81.3463C90.2004 83.7728 89.6831 86.3736 89.6831 89L109.683 89H129.683Z" fill="#DD9534"/>
<circle cx="86.6195" cy="109.666" r="13" fill="black"/>
<path d="M55.0825 46.2514C67.3778 48.6186 94.5865 46.7905 105.443 26.827C116.3 6.86345 128.618 22.3586 124.846 39.881C121.073 57.4033 82.2646 74.7809 59.7392 69.6676C37.2139 64.5542 36.7107 54.7506 41.082 48.6034C45.4532 42.4561 55.0825 46.2514 55.0825 46.2514Z" fill="#DD9534" stroke="black" stroke-width="4"/>
<path d="M62.0322 46.0705C62.0322 46.0705 48.5216 15.2751 62.0322 6.66587C75.5428 -1.94334 103.054 26.0955 103.054 26.0955L62.0322 46.0705Z" fill="#DD9534" stroke="black" stroke-width="4"/>
<path d="M64.134 45.6544C64.134 45.6544 61.0164 42.2473 66.9788 34.0006C72.9411 25.7539 91.5263 23.9702 96.1831 24.6659C100.84 25.3617 105.228 30.1072 105.228 30.1072L87.7008 42.587L64.134 45.6544Z" fill="black" stroke="black"/>
</svg>
